<?xml version="1.0" encoding="iso-8859-1"?>
<!-- Generator: Adobe Illustrator 16.0.0, SVG Export Plug-In . SVG Version: 6.00 Build 0)  -->
<!DOCTYPE svg PUBLIC "-//W3C//DTD SVG 1.1//EN" "http://www.w3.org/Graphics/SVG/1.1/DTD/svg11.dtd">
<svg version="1.1" id="Capa_1" xmlns="http://www.w3.org/2000/svg" xmlns:xlink="http://www.w3.org/1999/xlink" x="0px" y="0px"
	 width="492.097px" height="492.097px" viewBox="0 0 492.097 492.097" style="enable-background:new 0 0 492.097 492.097;"
	 xml:space="preserve" fill="#d27c38">
<g>
	<g>
		<path d="M195.313,135.991c0.542,0.935,1.981,3.415,11.21,5.154c2.157,0.408,4.412,0.614,6.699,0.614c0.002,0,0.002,0,0.003,0
			c7.598,0,14.741-2.218,21.647-4.363c6.545-2.031,12.727-3.951,18.936-3.951l0.264,0.002c9.247,0.082,17.892,2.941,27.042,5.97
			c3.952,1.308,8.024,2.71,12.19,3.775c1.76,0.45,2.897-0.024,3.621-0.406c20.539-10.836,38.354-25.248,50.16-40.578
			c5.874-7.625,10.861-17.876,15.247-31.34c2.021-6.217,4.257-15.493,0.314-24.243c-5.075-11.271-18.512-12.575-28.178-12.575
			c-2.92,0-20.617,0.676-25.289,0.676c-11.814,0-25.637-0.892-38.562-7.506c-5.618-2.875-10.891-6.597-16.471-10.537
			c-8.458-5.974-17.203-12.15-27.497-15.35C223.806,0.448,220.949,0,218.161,0c-19.494,0-31.228,21.691-35.083,28.818
			c-5.563,10.281-11.954,24.152-12.01,40.299c-0.054,14.711,5.107,28.522,9.61,38.911
			C185.012,118.022,190.073,126.958,195.313,135.991z"/>
		<path d="M404.995,273.639c-19.341-35.351-46.661-64.076-75.798-91.633c-8.092-7.65-15.632-14.367-23.485-21.011
			c-7.088-2.542-21.558-2.571-30.146-5.419c-7.978-2.646-16.339-5.539-24.87-5.005c-7.813,0.49-15.129,3.287-22.688,5.08
			c-8.488,2.013-16.675,2.582-25.279,0.959c0,0-11.689-1.687-39.319-22.164c-11.218-8.314-23.21-15.755-37.039-18.745
			c-13.144-2.843-18.731,17.309-5.557,20.158c12.597,2.725,22.935,9.975,33.182,17.469c0.022,0.016,0.044,0.032,0.065,0.048
			c-14.398,1.893-27.813,7.633-41.751,11.451c-12.986,3.558-7.466,23.726,5.558,20.158c14.106-3.865,28.101-10.595,42.866-11.317
			c2.346-0.114,4.597,0.149,6.819,0.566c-32.937,27.116-63.351,57.013-85.055,94.276c-18.781,32.243-27.15,69.75-15.907,106.066
			c6.578,21.255,19.204,40.11,33.923,56.573c12.858,14.383,27.273,27.338,44.387,36.374c30.861,16.298,66.854,22.868,101.429,24.31
			c37.057,1.544,75.262-3.567,109.423-18.458c31.121-13.563,57.553-37.167,68.595-69.9
			C438.91,360.285,426.121,312.244,404.995,273.639z M314.796,422.3c-0.025,0-0.049,0-0.074,0
			c-0.859-0.004-86.445-0.43-128.911-0.43c-6.917,0-12.889-4.851-14.307-11.621c-1.419-6.771,2.103-13.609,8.438-16.386
			c22.018-9.652,30.079-30.842,32.71-59.07h-8.497c-8.073,0-14.618-6.545-14.618-14.618s6.545-14.618,14.618-14.618h9.636
			c0.003-5.415-0.067-10.979-0.176-16.688c-0.082-4.23-0.158-8.229-0.195-12.168c-0.254-27.731,10.93-49.739,29.919-58.873
			c16.557-7.966,35.938-4.483,53.17,9.549c6.26,5.098,7.202,14.306,2.105,20.565c-5.099,6.26-14.306,7.203-20.566,2.105
			c-4.75-3.868-13.929-9.774-22.037-5.872c-8.257,3.972-13.499,16.633-13.355,32.257c0.035,3.793,0.11,7.721,0.19,11.877
			c0.107,5.59,0.217,11.365,0.239,17.247h31.008c8.073,0,14.618,6.546,14.618,14.618c0,8.073-6.545,14.618-14.618,14.618H242.08
			c-0.729,8.603-1.933,17.172-3.902,25.483c-2.956,12.473-7.442,23.295-13.429,32.426c41.853,0.12,89.478,0.356,90.119,0.359
			c8.072,0.04,14.585,6.618,14.545,14.691C329.373,415.803,322.835,422.3,314.796,422.3z"/>
	</g>
</g>
<g>
</g>
<g>
</g>
<g>
</g>
<g>
</g>
<g>
</g>
<g>
</g>
<g>
</g>
<g>
</g>
<g>
</g>
<g>
</g>
<g>
</g>
<g>
</g>
<g>
</g>
<g>
</g>
<g>
</g>
</svg>
