<svg version="1.1" id="Layer_1" xmlns="http://www.w3.org/2000/svg" xmlns:xlink="http://www.w3.org/1999/xlink" x="0px" y="0px" viewBox="0 0 420.339 92.39" enable-background="new 0 0 420.339 92.39" xml:space="preserve">
  <g>
    <path fill="#3d2f54" d="M398.722,16.256c0-4.586,3.744-8.339,8.365-8.339c2.211,0,4.285,0.89,5.857,2.443 c1.57,1.601,2.416,3.69,2.416,5.896c0,2.211-0.846,4.331-2.416,5.873c-1.572,1.581-3.646,2.464-5.857,2.464 C402.466,24.593,398.722,20.856,398.722,16.256z M398.015,16.256c0,4.991,4.072,9.052,9.072,9.052c2.418,0,4.648-0.936,6.375-2.649 c1.721-1.721,2.641-3.977,2.641-6.403c0-2.428-0.92-4.686-2.641-6.409c-1.727-1.701-3.957-2.648-6.375-2.648 C402.087,7.2,398.015,11.263,398.015,16.256z M403.694,21.588h1.266V17.38h2.871c0.494,0,0.855,0.036,1.123,0.167 c0.418,0.241,0.645,0.651,0.664,1.309l0.115,1.646c0,0.374,0.01,0.633,0.01,0.764c0.066,0.13,0.113,0.241,0.123,0.323h1.6v-0.231 c-0.205-0.071-0.297-0.276-0.418-0.597c-0.063-0.173-0.063-0.453-0.076-0.825l-0.055-1.319c0-0.568-0.129-1.005-0.287-1.236 c-0.197-0.252-0.52-0.474-0.887-0.623c0.428-0.206,0.756-0.54,1.023-0.903c0.219-0.39,0.344-0.846,0.344-1.43 c0-1.125-0.436-1.904-1.32-2.326c-0.463-0.222-1.078-0.324-1.773-0.324h-4.322V21.588z M404.96,16.256v-3.357h3.057 c0.447,0,0.809,0.074,1.07,0.205c0.434,0.251,0.713,0.725,0.713,1.422c0,0.669-0.182,1.115-0.537,1.375 c-0.336,0.243-0.799,0.355-1.377,0.355H404.96z M42.469,28.721L5.257,86.338h25.435l35.772-55.082L42.469,28.721z M195.514,27.429 V6.075H123.19c-9.837,0.614-14.141,5.252-17.366,8.6c-3.439,3.553-5.393,11.034-5.393,11.034V6.214c0,0-35.5,0-38.394,0 c-2.899,0-5.659,1.217-7.744,4.074c-2.175,2.824-10.959,17.141-10.959,17.141H195.514z M392.169,27.446V6.075h-77.383 c-9.807,0.614-14.135,5.252-17.365,8.6c-3.441,3.553-5.377,11.034-5.377,11.034v1.72L392.169,27.446z M220.913,6.178H199.29v21.251 h21.624V6.178z M291.888,6.178h-21.602v21.251h21.602V6.178z M291.888,35.099l-21.24-1.255v24.653c0,0-0.064,7.102-7.002,7.102 c-6.877,0-36.508,0-36.508,0s-6.182-0.502-6.182-7.036c0-6.518,0-28.065,0-28.065l-21.454-1.536v37.809 c3.467,18.134,20.015,19.531,20.015,19.531s1.684,0.113,1.959,0.14h49.311c0,0,21.102-1.683,21.102-21.728 C291.888,44.665,291.888,35.099,291.888,35.099z M78.483,86.35H179.62c17.615-3.496,19.455-19.32,19.455-19.32 c0.829-4.703,0.345-8.507,0.345-8.507c-0.53-3.169-6.62-17.168-19.841-18.387c-7.882-0.726-78.042-6.238-78.042-6.238 c1.358,6.957,4.52,10.468,6.621,12.477c4.871,4.629,12.622,5.94,12.622,5.94c1.87,0.176,54.071,4.452,54.071,4.452 c1.662,0.085,4.814,0.503,4.777,4.582c0,0.495-0.457,4.09-4.462,4.09c-4.872,0-75.655,0-75.655,0V33.721l-21.027-1.522V86.35z M292.044,86.534h77.375c19.41-1.107,22.152-19.327,22.152-19.327c0.688-4.787,0.121-8.684,0.121-8.684 c-0.557-4.312-6.758-17.269-19.994-18.525c-7.838-0.725-78.396-4.842-78.396-4.842c2.092,7.177,4.898,9.35,7.018,11.339 c4.883,4.648,12.199,5.763,12.199,5.763c1.84,0.147,54.621,4.508,54.621,4.508c1.703,0.085,5.096,0.263,5.096,4.333 c0,1.227-0.633,2.499-1.416,3.196c0,0-1.865,1.014-3.596,1.014c-4.879,0-75.131,0-75.131,0L292.044,86.534z"/>
  </g>
</svg>