<?xml version="1.0" encoding="utf-8"?>
<!-- Generator: Adobe Illustrator 20.0.0, SVG Export Plug-In . SVG Version: 6.00 Build 0)  -->
<svg version="1.1" id="Layer_1" xmlns="http://www.w3.org/2000/svg" xmlns:xlink="http://www.w3.org/1999/xlink" x="0px" y="0px"
	 viewBox="0 0 254.6 84.5" style="enable-background:new 0 0 254.6 84.5;" xml:space="preserve">
<style type="text/css">
	.st0{fill:#3d2f54;}
</style>
<g>
	<path class="st0" d="M233.4,71.4c-13.5,0.1-26.2,0.2-29.8-0.1c-7.2-0.6-12-5.3-12.6-12.3c-0.4-4.5-0.4-8.3,0-11.9
		c0.7-6.7,6.3-13.2,12.6-13.5c2.3-0.1,8.3-0.1,19.2-0.1l31.8,0.1V20.5c0,0-25.3,0-32.9-0.1c-10.2,0-15.3-0.1-18.6,0.1
		c-7.2,0.3-13.2,2.8-17.8,7.6c-4.4,4.5-7.1,11.6-7.5,18.8c-0.2,3.9-0.3,9,0,12c0.7,7.7,3.2,13.8,7.5,18.1c4.5,4.6,11.3,7.5,17.8,7.6
		c5.3,0.1,51.5,0,51.5,0V71.3C254.6,71.3,240.6,71.4,233.4,71.4"/>
	<path class="st0" d="M90,21.2v13.2c0,0,30.8,0,31.3,0c0,0.5,0,49.9,0,49.9h13.2c0,0,0-49.3,0-49.9c0.5,0,31.3,0,31.3,0V21.2H90"/>
	<path class="st0" d="M76.3,46.1C76.2,39,73.7,32.9,68.9,28c-5.1-5.1-12.8-7.3-17.8-7.5c-4.4-0.2-21.7-0.2-25.8,0
		c-5.7,0.2-9.9,1.9-12,3.5c0,0,0,0,0,0c0-1.5,0-23.9,0-23.9H0v84.5h13.2c0,0-0.3-34.6,0-38.3c0.5-6.7,5.6-11.9,12.1-12.5
		c5.2-0.4,20.8-0.3,25.7,0c6.7,0.5,11.7,5.7,12.1,12.8c0.1,2.6,0,38.1,0,38.1h13.2C76.3,84.5,76.3,49.1,76.3,46.1"/>
</g>
</svg>
