<?xml version="1.0" encoding="utf-8"?>
<!-- Generator: Adobe Illustrator 21.1.0, SVG Export Plug-In . SVG Version: 6.00 Build 0)  -->
<svg version="1.1" id="Lager_1" xmlns="http://www.w3.org/2000/svg" xmlns:xlink="http://www.w3.org/1999/xlink" x="0px" y="0px"
	 viewBox="0 0 500 200" style="enable-background:new 0 0 500 200;" xml:space="preserve">
<style type="text/css">
	.st0{fill:#3d2f54;}
</style>
<g id="RHuZkH.tif">
	<g>
		<path class="st0" d="M113.3,151.8c-3.4-0.6-6.8-1.1-10.1-2c-20.8-5.2-32.6-22.9-30-44.9c2.3-19.3,19.5-34,39.8-34.2
			c11.1-0.1,21.2,2.2,29.6,9.9c7.1,6.6,10.6,15,12,24.6c-18.2,7.6-36.3,15.1-54.8,22.8c4.2,4.4,9.2,5.9,14.6,6.4
			c8.4,0.8,16-1.4,22.7-6.6c1.8-1.4,3-1.3,4.7,0.1c3.5,3,7.3,5.7,11.1,8.7c-4.8,5.4-10.6,8.9-17.1,11.1c-5.3,1.8-10.8,2.8-16.2,4.1
			C117.7,151.8,115.5,151.8,113.3,151.8z M94.1,114.2c12.6-5.2,24.9-10.3,37.2-15.5c-4.5-9.4-13.7-13.2-23.5-10
			C97.9,91.9,91.8,102.8,94.1,114.2z"/>
		<path class="st0" d="M288.9,151.8c-2.2-0.4-4.4-0.9-6.6-1.3c-19.3-4-32.4-20.2-32.3-40.1c0.1-19,13.9-35.3,33-38.9
			c19.3-3.7,37.5,4.2,46.2,20.1c13.8,25.1-2.9,56.8-31.5,59.5c-1,0.1-2.1,0.4-3.1,0.7C292.7,151.8,290.8,151.8,288.9,151.8z
			 M312.9,111.1c0-12.6-9.2-22.3-21.1-22.2c-11.9,0-20.7,9.5-20.7,22.2c0.1,12.4,9.3,22,21,22C304.2,133.1,312.9,123.9,312.9,111.1z
			"/>
		<path class="st0" d="M454.7,151.8c-3.7-0.9-7.6-1.5-11.2-2.6c-18.1-5.9-28.6-21.9-27.6-41.6c0.9-16.9,14.8-32.3,32.2-35.9
			c20.7-4.2,40.2,5,48.3,22.9c1.6,3.6,2.4,7.5,3.6,11.3c0,3.5,0,6.9,0,10.4c-0.2,0.5-0.5,0.9-0.6,1.4c-3.4,17.3-14,27.9-30.7,32.6
			c-2.7,0.7-5.4,1.1-8.2,1.6C458.5,151.8,456.6,151.8,454.7,151.8z M436.9,110.8c-0.1,12.4,9,22.2,20.7,22.3
			c12.2,0.1,21-9.1,21.1-21.7c0.1-12.6-9.1-22.4-20.9-22.5C445.8,88.8,437,98,436.9,110.8z"/>
		<path class="st0" d="M21.4,48.2c0.1,1.4,0.4,2.8,0.4,4.1c0,24.6,0,49.2,0,73.8c0,1.3,0,2.6,0,4.3c16.3,0,32.4,0,48.7,0
			c0,6.7,0,13,0,19.8c-1.3,0-2.6,0-3.8,0c-20.9,0-41.9,0-62.8,0c-1.3,0-2.6,0.2-3.9,0.2c0-34.1,0-68.2,0-102.3
			C7.1,48.2,14.2,48.2,21.4,48.2z"/>
		<path class="st0" d="M183.9,150c-7.1,0-14,0-21.1,0c0-25.9,0-51.7,0-77.8c6.9,0,13.8,0,21,0c0,3.3,0,6.4,0,10.6
			c1.5-1.5,2.4-2.3,3.3-3.2c15-14.7,41.8-11.1,50.7,7.1c2.1,4.2,3.3,9.2,3.4,13.9c0.4,15.4,0.1,30.9,0.2,46.3c0,2.4-0.5,3.5-3.2,3.4
			c-5.1-0.2-10.1-0.2-15.2,0c-2.7,0.1-3.2-0.9-3.2-3.4c0.1-13.5-0.3-27,0.1-40.5c0.3-9.8-7.8-17.3-18.1-17.5
			c-10.4-0.2-17.9,7.2-17.9,17.5c0,13.3,0,26.5,0,39.8C183.9,147.5,183.9,148.7,183.9,150z"/>
		<path class="st0" d="M375.4,124.2c3.4-9.2,6.7-18.3,10-27.5c2.7-7.3,5.3-14.6,7.9-21.9c0.7-2,1.6-2.9,3.9-2.8
			c7,0.2,14,0.1,21.5,0.1c-0.5,1.4-0.8,2.3-1.1,3.3c-9.8,23.9-19.7,47.8-29.4,71.7c-1,2.5-2.2,3.4-4.9,3.3c-5.8-0.2-11.6,0-17.5-0.2
			c-1.2,0-2.9-1.1-3.3-2.1c-10.3-24.7-20.5-49.5-30.7-74.3c-0.2-0.4-0.2-0.8-0.4-1.7c5.7,0,11.3,0,16.8,0c7.4,0,7.4,0,9.8,6.8
			c5.2,14.2,10.3,28.3,15.5,42.5c0.4,1,0.8,2,1.1,2.9C374.9,124.2,375.1,124.2,375.4,124.2z"/>
	</g>
</g>
</svg>
